<?xml version="1.0" standalone="no"?>
<!DOCTYPE svg PUBLIC "-//W3C//DTD SVG 20010904//EN"
 "http://www.w3.org/TR/2001/REC-SVG-20010904/DTD/svg10.dtd">
<svg version="1.0" xmlns="http://www.w3.org/2000/svg"
 width="550.000000pt" height="550.000000pt" viewBox="0 0 550.000000 550.000000"
 preserveAspectRatio="xMidYMid meet">
<g transform="translate(0.000000,550.000000) scale(0.100000,-0.100000)"
fill="#000000" stroke="none">
<path d="M2545 5314 c-397 -41 -711 -134 -1025 -304 -642 -349 -1117 -973
-1274 -1676 -30 -131 -56 -304 -56 -368 l0 -46 2550 0 2550 0 0 46 c0 129 -59
415 -126 613 -128 377 -323 692 -607 980 -397 402 -885 648 -1457 736 -101 15
-468 28 -555 19z"/>
<path d="M210 2534 c0 -64 26 -236 56 -369 157 -704 639 -1334 1283 -1679 270
-145 539 -233 861 -283 142 -21 528 -25 665 -5 592 85 1089 329 1494 733 395
396 643 892 725 1450 9 59 16 127 16 153 l0 46 -2550 0 -2550 0 0 -46z"/>
</g>
<g transform="translate(0.000000,550.000000) scale(0.100000,-0.100000)"
fill="#FFFFFF" stroke="none">
<path d="M2530 5190 c-465 -49 -884 -213 -1259 -493 -123 -92 -376 -345 -468
-468 -256 -342 -418 -729 -478 -1140 -8 -59 -15 -125 -15 -148 l0 -41 2450 0
2450 0 0 41 c0 23 -7 89 -15 148 -118 804 -621 1497 -1350 1856 -230 113 -477
191 -735 230 -124 19 -460 27 -580 15z"/>
</g>
<g transform="translate(0.000000,550.000000) scale(0.100000,-0.100000)"
fill="#000000" stroke="none">
<path d="M1470 4370 l0 -200 975 0 c536 0 975 -2 975 -5 0 -2 -195 -287 -434
-632 l-434 -628 266 -3 c243 -2 268 -1 283 15 10 10 218 308 463 663 l446 645
0 172 0 173 -1270 0 -1270 0 0 -200z"/>
</g>
<g transform="translate(0.000000,550.000000) scale(0.100000,-0.100000)"
fill="#FFFFFF" stroke="none">
<path d="M2292 2528 c-21 -29 -224 -321 -450 -649 l-412 -597 0 -176 0 -176
1330 0 1330 0 0 195 0 195 -1041 0 c-829 0 -1040 3 -1036 13 2 6 194 285 425
619 231 334 423 611 427 617 4 8 -75 11 -264 11 l-270 0 -39 -52z"/>
</g>
</svg>

